# xmcd
#
# Track frame offsets:
#	150
#	20072
#	40587
#	62932
#	84610
#	106287
#	126310
#
# Disc length: 2010 seconds
#
# Revision: 1
# Processed by: cddbd v1.5PL3 Copyright (c) Steve Scherf et al.
# Submitted via: CDex 1.50Beta5
#
DISCID=5b07d807
DTITLE=FLIP FLAP - forever
DYEAR=2002
DGENRE=Pop
TTITLE0=Go!Go!Red Shoes
TTITLE1=まだまだ何でさみしいの?
TTITLE2=カモミール
TTITLE3=キミを連れて風を感じて
TTITLE4=月になりたい
TTITLE5=forever
TTITLE6=友達でいようよ(graduation 2003)
EXTD=
EXTT0=
EXTT1=
EXTT2=
EXTT3=
EXTT4=
EXTT5=
EXTT6=
PLAYORDER=
